<svg width="682" height="49" viewBox="0 0 682 49" fill="none" xmlns="http://www.w3.org/2000/svg">
<path d="M14.0909 48H0.454545L15.8182 1.45454H33.0909L48.4545 48H34.8182L24.6364 14.2727H24.2727L14.0909 48ZM11.5455 29.6364H37.1818V39.0909H11.5455V29.6364ZM84.8875 48V1.45454H104.978C108.433 1.45454 111.456 2.13636 114.047 3.5C116.637 4.86363 118.653 6.7803 120.092 9.25C121.531 11.7197 122.251 14.6061 122.251 17.9091C122.251 21.2424 121.509 24.1288 120.024 26.5682C118.554 29.0076 116.486 30.8864 113.819 32.2045C111.168 33.5227 108.069 34.1818 104.524 34.1818H92.5239V24.3636H101.978C103.463 24.3636 104.728 24.1061 105.774 23.5909C106.834 23.0606 107.645 22.3106 108.206 21.3409C108.781 20.3712 109.069 19.2273 109.069 17.9091C109.069 16.5758 108.781 15.4394 108.206 14.5C107.645 13.5455 106.834 12.8182 105.774 12.3182C104.728 11.803 103.463 11.5455 101.978 11.5455H97.5239V48H84.8875ZM149.124 1.45454V48H136.488V1.45454H149.124ZM164.712 48V1.45454H198.258V11.6364H177.349V19.6364H196.531V29.8182H177.349V37.8182H198.167V48H164.712ZM257.58 18.9091H244.761C244.67 17.8485 244.428 16.8864 244.034 16.0227C243.655 15.1591 243.125 14.4167 242.443 13.7955C241.777 13.1591 240.966 12.6742 240.011 12.3409C239.057 11.9924 237.973 11.8182 236.761 11.8182C234.64 11.8182 232.845 12.3333 231.375 13.3636C229.92 14.3939 228.814 15.8712 228.057 17.7955C227.314 19.7197 226.943 22.0303 226.943 24.7273C226.943 27.5758 227.322 29.9621 228.08 31.8864C228.852 33.7955 229.966 35.2348 231.42 36.2045C232.875 37.1591 234.625 37.6364 236.67 37.6364C237.837 37.6364 238.883 37.4924 239.807 37.2045C240.731 36.9015 241.534 36.4697 242.216 35.9091C242.898 35.3485 243.451 34.6742 243.875 33.8864C244.314 33.0833 244.61 32.1818 244.761 31.1818L257.58 31.2727C257.428 33.2424 256.875 35.25 255.92 37.2955C254.966 39.3258 253.61 41.2045 251.852 42.9318C250.11 44.6439 247.951 46.0227 245.375 47.0682C242.799 48.1136 239.807 48.6364 236.398 48.6364C232.125 48.6364 228.292 47.7197 224.898 45.8864C221.519 44.053 218.845 41.3561 216.875 37.7955C214.92 34.2348 213.943 29.8788 213.943 24.7273C213.943 19.5455 214.943 15.1818 216.943 11.6364C218.943 8.07576 221.64 5.38636 225.034 3.56818C228.428 1.73485 232.216 0.81818 236.398 0.81818C239.337 0.81818 242.042 1.21969 244.511 2.02272C246.981 2.82576 249.148 4 251.011 5.54545C252.875 7.07576 254.375 8.96212 255.511 11.2045C256.648 13.447 257.337 16.0152 257.58 18.9091ZM272.913 48V1.45454H306.458V11.6364H285.549V19.6364H304.731V29.8182H285.549V37.8182H306.367V48H272.913ZM389.766 24.7273C389.766 29.9091 388.758 34.2803 386.743 37.8409C384.728 41.3864 382.008 44.0758 378.584 45.9091C375.16 47.7273 371.342 48.6364 367.13 48.6364C362.887 48.6364 359.054 47.7197 355.63 45.8864C352.22 44.0379 349.508 41.3409 347.493 37.7955C345.493 34.2348 344.493 29.8788 344.493 24.7273C344.493 19.5455 345.493 15.1818 347.493 11.6364C349.508 8.07576 352.22 5.38636 355.63 3.56818C359.054 1.73485 362.887 0.81818 367.13 0.81818C371.342 0.81818 375.16 1.73485 378.584 3.56818C382.008 5.38636 384.728 8.07576 386.743 11.6364C388.758 15.1818 389.766 19.5455 389.766 24.7273ZM376.766 24.7273C376.766 21.9394 376.395 19.5909 375.652 17.6818C374.925 15.7576 373.842 14.303 372.402 13.3182C370.978 12.3182 369.22 11.8182 367.13 11.8182C365.039 11.8182 363.273 12.3182 361.834 13.3182C360.41 14.303 359.327 15.7576 358.584 17.6818C357.857 19.5909 357.493 21.9394 357.493 24.7273C357.493 27.5152 357.857 29.8712 358.584 31.7955C359.327 33.7045 360.41 35.1591 361.834 36.1591C363.273 37.1439 365.039 37.6364 367.13 37.6364C369.22 37.6364 370.978 37.1439 372.402 36.1591C373.842 35.1591 374.925 33.7045 375.652 31.7955C376.395 29.8712 376.766 27.5152 376.766 24.7273ZM405.212 48V1.45454H437.94V11.6364H417.849V19.6364H435.94V29.8182H417.849V48H405.212ZM517.992 18.9091H505.174C505.083 17.8485 504.841 16.8864 504.447 16.0227C504.068 15.1591 503.538 14.4167 502.856 13.7955C502.189 13.1591 501.378 12.6742 500.424 12.3409C499.469 11.9924 498.386 11.8182 497.174 11.8182C495.053 11.8182 493.257 12.3333 491.788 13.3636C490.333 14.3939 489.227 15.8712 488.469 17.7955C487.727 19.7197 487.356 22.0303 487.356 24.7273C487.356 27.5758 487.734 29.9621 488.492 31.8864C489.265 33.7955 490.378 35.2348 491.833 36.2045C493.288 37.1591 495.038 37.6364 497.083 37.6364C498.25 37.6364 499.295 37.4924 500.219 37.2045C501.144 36.9015 501.947 36.4697 502.628 35.9091C503.31 35.3485 503.863 34.6742 504.288 33.8864C504.727 33.0833 505.022 32.1818 505.174 31.1818L517.992 31.2727C517.841 33.2424 517.288 35.25 516.333 37.2955C515.378 39.3258 514.022 41.2045 512.265 42.9318C510.522 44.6439 508.363 46.0227 505.788 47.0682C503.212 48.1136 500.219 48.6364 496.81 48.6364C492.538 48.6364 488.704 47.7197 485.31 45.8864C481.931 44.053 479.257 41.3561 477.288 37.7955C475.333 34.2348 474.356 29.8788 474.356 24.7273C474.356 19.5455 475.356 15.1818 477.356 11.6364C479.356 8.07576 482.053 5.38636 485.447 3.56818C488.841 1.73485 492.628 0.81818 496.81 0.81818C499.75 0.81818 502.454 1.21969 504.924 2.02272C507.394 2.82576 509.56 4 511.424 5.54545C513.288 7.07576 514.788 8.96212 515.924 11.2045C517.06 13.447 517.75 16.0152 517.992 18.9091ZM543.978 48H530.342L545.706 1.45454H562.978L578.342 48H564.706L554.524 14.2727H554.16L543.978 48ZM541.433 29.6364H567.069V39.0909H541.433V29.6364ZM592.425 48V1.45454H605.061V20.2727H605.698L619.698 1.45454H634.425L618.698 22.1818L634.789 48H619.698L609.243 30.5455L605.061 36V48H592.425ZM647.775 48V1.45454H681.32V11.6364H660.411V19.6364H679.593V29.8182H660.411V37.8182H681.23V48H647.775Z" fill="#0E0D0D"/>
</svg>
