<svg width="48" height="48" viewBox="0 0 48 48" fill="none" xmlns="http://www.w3.org/2000/svg">
<g clip-path="url(#clip0_462_89)">
<rect width="48" height="48" rx="4" fill="#FFA3A3"/>
<path d="M10.6514 27H37.3486C38.0128 27.0001 38.4927 27.6358 38.3105 28.2744L35.4531 38.2744C35.3305 38.7037 34.9377 39 34.4912 39H13.5088C13.0623 39 12.6695 38.7037 12.5469 38.2744L9.68945 28.2744C9.50727 27.6358 9.98718 27.0001 10.6514 27Z" fill="white" stroke="black" stroke-width="2" stroke-linejoin="round"/>
<mask id="path-3-inside-1_462_89" fill="white">
<path d="M20 10C24.5872 10 28.4498 13.0896 29.6279 17.3008C30.8847 16.4789 32.3862 16 34 16C38.4183 16 42 19.5817 42 24C42 27.9287 39.1675 31.1933 35.4336 31.8691C34.0067 33.1908 32.0983 34 30 34C26.8713 34 24.1636 32.2032 22.8486 29.5859C21.9456 29.8539 20.99 30 20 30C18.9073 30 17.8564 29.822 16.8721 29.498C15.7829 31.0123 14.0077 32 12 32C8.68629 32 6 29.3137 6 26C6 23.3848 7.67354 21.1614 10.0078 20.3398C10.004 20.227 10 20.1138 10 20C10 14.4772 14.4772 10 20 10Z"/>
</mask>
<path d="M20 10C24.5872 10 28.4498 13.0896 29.6279 17.3008C30.8847 16.4789 32.3862 16 34 16C38.4183 16 42 19.5817 42 24C42 27.9287 39.1675 31.1933 35.4336 31.8691C34.0067 33.1908 32.0983 34 30 34C26.8713 34 24.1636 32.2032 22.8486 29.5859C21.9456 29.8539 20.99 30 20 30C18.9073 30 17.8564 29.822 16.8721 29.498C15.7829 31.0123 14.0077 32 12 32C8.68629 32 6 29.3137 6 26C6 23.3848 7.67354 21.1614 10.0078 20.3398C10.004 20.227 10 20.1138 10 20C10 14.4772 14.4772 10 20 10Z" fill="white"/>
<path d="M29.6279 17.3008L27.7019 17.8396L28.4375 20.469L30.7226 18.9746L29.6279 17.3008ZM35.4336 31.8691L35.0774 29.9011L34.5029 30.0051L34.0745 30.4018L35.4336 31.8691ZM22.8486 29.5859L24.6358 28.6881L23.8843 27.1924L22.2797 27.6686L22.8486 29.5859ZM16.8721 29.498L17.4973 27.5983L16.1046 27.1399L15.2484 28.3302L16.8721 29.498ZM12 32L12 34H12V32ZM10.0078 20.3398L10.6718 22.2264L12.0557 21.7393L12.0067 20.2731L10.0078 20.3398ZM10 20L8 20V20H10ZM20 10V12C23.6658 12 26.7588 14.4687 27.7019 17.8396L29.6279 17.3008L31.554 16.7619C30.1408 11.7106 25.5086 8 20 8V10ZM29.6279 17.3008L30.7226 18.9746C31.6648 18.3584 32.7878 18 34 18V16V14C31.9846 14 30.1047 14.5993 28.5333 15.6269L29.6279 17.3008ZM34 16V18C37.3137 18 40 20.6863 40 24H42H44C44 18.4772 39.5228 14 34 14V16ZM42 24H40C40 26.9434 37.8776 29.3943 35.0774 29.9011L35.4336 31.8691L35.7898 33.8372C40.4575 32.9924 44 28.914 44 24H42ZM35.4336 31.8691L34.0745 30.4018C33.0018 31.3954 31.5736 32 30 32V34V36C32.6231 36 35.0116 34.9861 36.7927 33.3364L35.4336 31.8691ZM30 34V32C27.6571 32 25.6248 30.6566 24.6358 28.6881L22.8486 29.5859L21.0615 30.4838C22.7024 33.7498 26.0855 36 30 36V34ZM22.8486 29.5859L22.2797 27.6686C21.5562 27.8832 20.792 28 20 28V30V32C21.1879 32 22.335 31.8245 23.4176 31.5033L22.8486 29.5859ZM20 30V28C19.1259 28 18.2858 27.8578 17.4973 27.5983L16.8721 29.498L16.2468 31.3978C17.4269 31.7862 18.6886 32 20 32V30ZM16.8721 29.498L15.2484 28.3302C14.5178 29.3461 13.3351 30 12 30V32V34C14.6803 34 17.0481 32.6786 18.4957 30.6659L16.8721 29.498ZM12 32L12 30C9.79086 30 8 28.2091 8 26H6H4C4 30.4183 7.58172 34 12 34L12 32ZM6 26H8C8 24.2603 9.11237 22.7753 10.6718 22.2264L10.0078 20.3398L9.34382 18.4533C6.23471 19.5476 4 22.5093 4 26H6ZM10.0078 20.3398L12.0067 20.2731C12.0026 20.1501 12 20.0734 12 20H10H8C8 20.1541 8.0055 20.3039 8.00893 20.4066L10.0078 20.3398ZM10 20L12 20C12 15.5817 15.5817 12 20 12V10V8C13.3726 8 8 13.3726 8 20L10 20Z" fill="black" mask="url(#path-3-inside-1_462_89)"/>
<path d="M18 34L20 36" stroke="black" stroke-width="2" stroke-linecap="round" stroke-linejoin="round"/>
<path d="M24 34V36" stroke="black" stroke-width="2" stroke-linecap="round" stroke-linejoin="round"/>
</g>
<defs>
<clipPath id="clip0_462_89">
<rect width="48" height="48" fill="white"/>
</clipPath>
</defs>
</svg>
